@startuml



package Local{
Class "UserInterface" as UI{
+showScreenState(state : ScreenState) : void
}
class "Logic" as client{
- user
+setLoginScreen() : LoginScreen
+setRegisterScreen() : RegisterScreen
+setHomescreen() : HomeScreen
}

interface "IAiService" as AiS{
//Logica over de ai
}

class "BattleEngineOffline" as OBES{
-battleState
+initializePlayers(users : List<User>) : List<Player>
+StartMatch(players : List<Player>) : void
+playCard() : void
+attack() : void
}
}


interface "ICardCollectionService" as CCS{
-changeDeckState
-openPackSate
-cardCollectionState
+getPackByName(packName : String) : Pack
+getCardById(cardID : int) : Card
+getCardById(cardID : List<int>) : List<Card>
+openpack(pack : Pack) : List<Card>
+getCards(userID : int) : List<Card>
+getDecks(userID : int) : List<Deck>
+saveCards(userID : int, Cards : List<Card>) : void
+saveDecks(userID : int, Decks : List<Deck>) : void
}

interface "ITradeService" as TS {
//trading logica, is niet nog uitgedacht
}

interface "IUserService" as US{
+getUserID(id: int) : User
+register(user: User, password: String) : void
+updateUser(token: String, username? : String, password? : String) : void
+Login(username : String, password : String) : token
}
interface "IAnalyzeService" as AS{
-LeaderboardState
+get_Stats() : PlayerStats
+get_Leaderboard() : List<LeaderboardEntry>
+get_trends() : TrendData
}

interface "IMatchmakerService" as MS{
+addToQueue() : void
}
interface "IBattleEngineService" as BES{
-battleState
+initializePlayers(users : List<User>) : List<Player>
+StartMatch(players : List<Player>) : void
+playCard() : void
+attack() : void
}

client --> CCS
client --> US
client --> AS
client -> AiS
client --> MS
client --> BES
client --> TS
UI --> client
client -> OBES

@enduml